<svg xmlns="http://www.w3.org/2000/svg" xmlns:svg="http://www.w3.org/2000/svg" id="svg8" width="115.157" height="100.501" version="1.1" viewBox="0 0 30.469 26.591"><title id="title3812">Empty</title><metadata id="metadata5"/><g id="layer1" transform="translate(-143.22306,-141.15304)"><path style="fill:none;stroke:#000;stroke-width:.60000002;stroke-linecap:butt;stroke-linejoin:miter;stroke-miterlimit:4;stroke-dasharray:none;stroke-opacity:1" id="path3750" d="m 147.23785,163.11688 v -15.11905 c 0,-0.36507 0.31812,-0.59059 0.51972,-0.59059 h 7.08705 c 1.00092,0 0.60128,1.66687 1.37017,1.6064 l 11.41015,-0.0473 c 0.42463,0 0.77211,0.34502 0.77211,0.67972 0,0.0552 0.008,3.01339 0.008,3.07968"/><path style="fill:none;stroke:#000;stroke-width:.6;stroke-linecap:butt;stroke-linejoin:miter;stroke-miterlimit:4;stroke-dasharray:none;stroke-opacity:1" id="path3752" d="m 150.10525,152.74461 -2.8674,10.37227 c -0.0158,0.37197 0.21702,0.66872 0.5622,0.73612 l 20.32918,0.0167 2.90656,-10.32328 c 0.017,-0.4318 -0.0928,-0.80181 -0.53454,-0.80181 z"/><path style="fill:none;stroke:#000;stroke-width:.6;stroke-linecap:butt;stroke-linejoin:miter;stroke-miterlimit:4;stroke-dasharray:none;stroke-opacity:1" id="path3796" d="m 168.81411,155.86832 -1.26953,5.07812"/><path style="fill:none;stroke:#000;stroke-width:.6;stroke-linecap:butt;stroke-linejoin:miter;stroke-miterlimit:4;stroke-dasharray:none;stroke-opacity:1" id="path3798" d="m 143.22306,163.853 h 1.9377"/><path style="fill:none;stroke:#000;stroke-width:.6;stroke-linecap:butt;stroke-linejoin:miter;stroke-miterlimit:4;stroke-dasharray:none;stroke-opacity:1" id="path3800" d="m 151.17433,167.29409 4.51016,0.0334"/><path style="fill:none;stroke:#000;stroke-width:.6;stroke-linecap:butt;stroke-linejoin:miter;stroke-miterlimit:4;stroke-dasharray:none;stroke-opacity:1" id="path3802" d="m 160.39512,165.95775 h 5.17835"/><path style="fill:none;stroke:#000;stroke-width:.6;stroke-linecap:butt;stroke-linejoin:miter;stroke-miterlimit:4;stroke-dasharray:none;stroke-opacity:1" id="path3804" d="m 163.30168,167.56136 h 2.47224"/><path style="fill:none;stroke:#000;stroke-width:.6;stroke-linecap:butt;stroke-linejoin:miter;stroke-miterlimit:4;stroke-dasharray:none;stroke-opacity:1" id="path3806" d="m 169.71614,165.72388 h 3.97564"/><path style="fill:none;stroke:#000;stroke-width:.6;stroke-linecap:butt;stroke-linejoin:miter;stroke-miterlimit:4;stroke-dasharray:none;stroke-opacity:1" id="path3808" d="m 171.78748,163.853 h -1.33634"/><path style="fill:none;stroke:#000;stroke-width:.6;stroke-linecap:butt;stroke-linejoin:miter;stroke-miterlimit:4;stroke-dasharray:none;stroke-opacity:1" id="path3810" d="m 145.47082,165.59735 h 6.61458"/><path style="fill:none;stroke:#000;stroke-width:.4;stroke-linecap:butt;stroke-linejoin:miter;stroke-opacity:1;stroke-miterlimit:4;stroke-dasharray:none" id="path4636" d="m 163.82439,142.13083 -1.05834,1.12448 v 1.0418 h 1.05834 v -2.16628 l 0.50022,-0.50023 h 0.80616 l 1.61023,1.61024 v 1.06454 h -1.06453 v -2.12494 0.53744 h -1.86035 v 1.08313 h 1.84381 v 0.4961 c -0.56496,0.5064 -1.16083,0.67888 -1.83554,0"/><path style="fill:none;stroke:#000;stroke-width:.4;stroke-linecap:butt;stroke-linejoin:miter;stroke-opacity:1;stroke-miterlimit:4;stroke-dasharray:none" id="path4653" d="m 159.36272,151.62971 0.31419,-0.18191"/><path style="fill:none;stroke:#000;stroke-width:.4;stroke-linecap:butt;stroke-linejoin:miter;stroke-opacity:1;stroke-miterlimit:4;stroke-dasharray:none" id="path4655" d="m 160.70217,151.11707 c 0.26998,-0.16536 0.39561,-0.33073 0.51263,-0.49609"/><path style="fill:none;stroke:#000;stroke-width:.4;stroke-linecap:butt;stroke-linejoin:miter;stroke-opacity:1;stroke-miterlimit:4;stroke-dasharray:none" id="path4657" d="m 161.87709,149.7514 c 0.11961,-0.20395 0.23179,-0.45468 0.10241,-0.65863"/><path style="fill:none;stroke:#000;stroke-width:.4;stroke-linecap:butt;stroke-linejoin:miter;stroke-opacity:1;stroke-miterlimit:4;stroke-dasharray:none" id="path4659" d="m 161.46285,148.48778 c -0.10671,-0.0267 -0.21341,-0.0361 -0.32012,-0.0767 -0.0662,-0.0252 -0.13235,-0.0625 -0.19853,-0.12337"/><path style="fill:none;stroke:#000;stroke-width:.4;stroke-linecap:butt;stroke-linejoin:miter;stroke-opacity:1;stroke-miterlimit:4;stroke-dasharray:none" id="path4661" d="m 159.7596,147.89247 c -0.27227,-0.14691 -0.30205,-0.35444 -0.33073,-0.56224"/><path style="fill:none;stroke:#000;stroke-width:.4;stroke-linecap:butt;stroke-linejoin:miter;stroke-opacity:1;stroke-miterlimit:4;stroke-dasharray:none" id="path4663" d="m 159.46595,146.37513 c 0.0101,-0.27013 0.16924,-0.41246 0.39688,-0.4961"/><path style="fill:none;stroke:#000;stroke-width:.4;stroke-linecap:butt;stroke-linejoin:miter;stroke-opacity:1;stroke-miterlimit:4;stroke-dasharray:none" id="path4665" d="m 161.09905,146.07346 c 0.16436,0.026 0.29065,0.0997 0.33073,0.28111"/><path style="fill:none;stroke:#000;stroke-width:.4;stroke-linecap:butt;stroke-linejoin:miter;stroke-opacity:1;stroke-miterlimit:4;stroke-dasharray:none" id="path4667" d="m 162.09408,147.36898 c 0.12782,0.22293 0.10425,0.3954 0.0468,0.55656"/><path style="fill:none;stroke:#000;stroke-width:.4;stroke-linecap:butt;stroke-linejoin:miter;stroke-opacity:1;stroke-miterlimit:4;stroke-dasharray:none" id="path4669" d="m 162.88499,148.17359 c 0.21549,-0.14896 0.28298,-0.26092 0.38033,-0.38034"/><path style="fill:none;stroke:#000;stroke-width:.4;stroke-linecap:butt;stroke-linejoin:miter;stroke-opacity:1;stroke-miterlimit:4;stroke-dasharray:none" id="path4671" d="m 164.17483,147.01603 0.24805,-0.46302"/><path style="fill:none;stroke:#000;stroke-width:.4;stroke-linecap:butt;stroke-linejoin:miter;stroke-opacity:1;stroke-miterlimit:4;stroke-dasharray:none" id="path4673" d="m 164.72053,145.32931 v -0.47955"/></g></svg>